<svg xmlns="http://www.w3.org/2000/svg" viewBox="0 0 245.371 220.736"><path d="M31.99 1.365C21.287 7.72.2 31.945 0 38.298v10.516C0 62.988 12.738 75.2 24.239 75.2c13.985 0 25.476-11.337 25.476-25.155 0 13.818 11.002 25.155 24.986 25.155 13.985 0 24.5-11.337 24.5-25.155 0 13.818 11.491 25.155 25.476 25.155h.5c13.985 0 25.476-11.337 25.476-25.155 0 13.818 10.515 25.155 24.5 25.155 13.985 0 24.986-11.337 24.986-25.155 0 13.818 11.491 25.155 25.476 25.155C221.634 75.2 234 62.988 234 48.814V38.298c-.2-6.353-21.287-30.578-32-36.933C202 1.365 32 1.365 32 1.365zM24.239 89.567c-5.561 0-10.95.899-16.092 2.291v74.927c0 29.564 8.592 50.67 68.763 50.67h80.028c60.171 0 68.763-21.106 68.763-50.67v-74.927c-5.142-1.392-10.531-2.291-16.092-2.291-8.067 0-15.432 3.031-21.009 7.951-5.578-4.92-12.943-7.951-21.01-7.951-8.067 0-15.432 3.031-21.009 7.951-5.578-4.92-12.943-7.951-21.01-7.951h-.5c-8.067 0-15.432 3.031-21.009 7.951-5.578-4.92-12.943-7.951-21.01-7.951-8.067 0-15.432 3.031-21.009 7.951-5.578-4.92-12.943-7.951-21.804-7.951zm57.744 36.46h70.154v17.731H81.983zm0 35.462h70.154v17.731H81.983z"/></svg>
